<?xml version="1.0" encoding="UTF-8" standalone="no"?>
<!-- Generator: Adobe Illustrator 16.0.0, SVG Export Plug-In . SVG Version: 6.00 Build 0)  -->

<svg
   xmlns:dc="http://purl.org/dc/elements/1.1/"
   xmlns:cc="http://creativecommons.org/ns#"
   xmlns:rdf="http://www.w3.org/1999/02/22-rdf-syntax-ns#"
   xmlns:svg="http://www.w3.org/2000/svg"
   xmlns="http://www.w3.org/2000/svg"
   xmlns:sodipodi="http://sodipodi.sourceforge.net/DTD/sodipodi-0.dtd"
   xmlns:inkscape="http://www.inkscape.org/namespaces/inkscape"
   version="1.1"
   id="svg2"
   inkscape:output_extension="org.inkscape.output.svg.inkscape"
   sodipodi:docname="transport_rental_bicycle.svg"
   inkscape:version="0.48.4 r9939"
   sodipodi:version="0.32"
   x="0px"
   y="0px"
   width="580px"
   height="580px"
   viewBox="0 0 580 580"
   enable-background="new 0 0 580 580"
   xml:space="preserve"><metadata
     id="metadata3073"><rdf:RDF><cc:Work
         rdf:about=""><dc:format>image/svg+xml</dc:format><dc:type
           rdf:resource="http://purl.org/dc/dcmitype/StillImage" /><dc:title></dc:title></cc:Work></rdf:RDF></metadata><defs
     id="defs3065"><inkscape:perspective
       inkscape:vp_z="580 : 290 : 1"
       inkscape:vp_y="0 : 1000 : 0"
       inkscape:vp_x="0 : 290 : 1"
       sodipodi:type="inkscape:persp3d"
       id="perspective24"
       inkscape:persp3d-origin="290 : 193.33333 : 1" /></defs><sodipodi:namedview
     showgrid="false"
     inkscape:cy="415.25176"
     inkscape:cx="636.47492"
     inkscape:zoom="0.70710678"
     pagecolor="#ffffff"
     bordercolor="#666666"
     guidetolerance="10.0"
     objecttolerance="10.0"
     gridtolerance="10.0"
     borderopacity="1.0"
     id="base"
     inkscape:current-layer="svg2"
     inkscape:window-y="25"
     inkscape:window-x="0"
     inkscape:pageopacity="0.0"
     inkscape:pageshadow="2"
     inkscape:window-width="1280"
     inkscape:window-height="975"
     inkscape:window-maximized="1" /><path
     fill="param(fill) #FFF"
     stroke="param(outline) #000"
     stroke-width="param(outline-width) 1"
     d="m 464.643,255.734 c -12.842,0 -25.093,2.572 -36.271,7.22 -1.111,-3.846 -2.242,-7.758 -3.379,-11.686 -4.421,-15.279 -8.924,-30.792 -12.717,-43.466 -3.736,-12.486 -7.194,-20.176 -8.327,-25.71 -0.883,-4.313 4.581,-3.942 10.338,-8.74 4.348,-3.623 8.035,-9.743 9.164,-15.972 0.94,-5.478 -0.225,-10.981 -2.772,-15.488 -8.85,-13.521 -17.484,-13.266 -28.908,-13.266 -15.021,0 -39.813,0 -39.814,0 l 0.095,24.396 38.196,0.078 c 4.558,0.009 6.922,6.417 -1.987,8.91 -3.903,1.081 -8.251,5.729 -9.706,11.488 -1.455,5.76 -0.368,11.505 1.761,16.825 0.489,1.224 1.446,4.983 2.85,10.247 l -173.408,0.875 -10.24,-25.066 c 11.563,-2.645 38.089,-9.007 41.763,-12.503 4.362,-3.973 0,-9.951 -3.379,-9.951 H 147.4 c 1.118,19.963 16.766,24.303 25.232,25.617 l 10.005,24.491 c -1.076,0.885 -1.996,1.974 -2.678,3.242 l -30.605,56.839 c -10.894,-4.375 -22.779,-6.788 -35.218,-6.788 -52.265,0 -94.786,42.521 -94.786,94.786 0,52.265 42.521,94.785 94.786,94.785 49.128,0 89.643,-37.57 94.33,-85.488 h 11.273 c 3.119,9.38 10.257,17.126 19.529,21.506 l -5.026,11.699 -17.144,0.157 c -3.673,0.033 -6.625,3.039 -6.591,6.712 0.034,3.653 3.005,6.592 6.65,6.592 0.021,0 0.042,0 0.063,-10e-4 l 38.482,-0.353 c 3.673,-0.033 6.625,-3.039 6.591,-6.712 -0.034,-3.653 -3.005,-6.592 -6.65,-6.592 -0.021,0 -0.042,0 -0.063,0.001 l -10.935,0.101 3.686,-8.579 c 2.706,0.559 5.514,0.863 8.399,0.863 21.346,0 38.712,-16.158 38.712,-36.021 0,-4.007 -0.718,-7.857 -2.021,-11.461 l 108.592,-73.688 c 1.084,3.759 2.155,7.474 3.202,11.104 -21.547,17.39 -35.355,44.001 -35.355,73.78 0,52.266 42.521,94.786 94.786,94.786 52.265,0 94.785,-42.521 94.785,-94.786 -0.003,-52.262 -42.524,-94.783 -94.788,-94.783 z m -75.256,-33.413 c 1.971,6.653 4.086,13.883 6.25,21.316 l -115.578,78.428 c -1.082,-0.763 -2.207,-1.476 -3.373,-2.132 l 5.133,-11.945 17.219,-0.158 c 3.674,-0.034 6.625,-3.039 6.592,-6.713 -0.034,-3.653 -3.006,-6.592 -6.651,-6.592 -0.021,0 -0.041,0 -0.062,0 l -38.483,0.353 c -3.674,0.034 -6.625,3.039 -6.591,6.713 0.033,3.653 3.005,6.592 6.65,6.592 0.021,0 0.042,0 0.063,0 l 10.859,-0.1 -3.529,8.214 c -3.536,-0.992 -7.281,-1.532 -11.16,-1.532 -0.226,0 -0.448,0.013 -0.673,0.016 l -37.418,-91.597 170.752,-0.863 z m -196.484,6.853 38.548,94.362 c -5.278,4.244 -9.314,9.786 -11.528,16.093 H 208.094 C 204.543,312.76 189.695,289.406 168.492,274.51 l 24.411,-45.336 z m -11.142,110.455 h -48.333 l 22.617,-42.003 c 13.184,10.167 22.584,24.997 25.716,42.003 z m -67.63,81.269 c -37.929,0 -68.786,-30.856 -68.786,-68.785 0,-37.929 30.857,-68.786 68.786,-68.786 7.982,0 15.644,1.382 22.777,3.893 l -31.304,58.137 c -1.817,3.375 -1.727,7.457 0.239,10.748 1.966,3.291 5.517,5.306 9.35,5.306 h 67.078 c -4.554,33.544 -33.365,59.487 -68.14,59.487 z m 350.512,-1.592 c -37.929,0 -68.786,-30.857 -68.786,-68.786 0,-17.561 6.623,-33.597 17.491,-45.765 1.24,4.193 2.347,7.873 3.265,10.881 1.206,3.95 1.817,6.164 2.837,8.674 l 0.424,1.043 0.619,0.946 c 0.443,0.709 4.797,12.96 16.565,23.054 l 0.098,0.064 0.064,0.099 c 8.458,7.005 15.752,9.517 20.359,10.979 4.852,1.492 11.491,0.727 14.706,-4.26 2.551,-3.659 0.305,-11.064 -4.525,-14.574 -1.902,-1.329 -7.382,-5.681 -14.112,-11.57 -6.003,-5.359 -6.49,-9.463 -10.068,-15.759 0.091,0.203 -0.899,-2.651 -2.022,-6.326 -1.151,-3.771 -2.651,-8.809 -4.369,-14.674 -0.486,-1.66 -0.992,-3.395 -1.513,-5.179 8.811,-4.109 18.622,-6.419 28.968,-6.419 37.929,0 68.785,30.856 68.785,68.785 0,37.929 -30.858,68.787 -68.786,68.787 z"
     id="path3069"
     inkscape:connector-curvature="0" /></svg>