<?xml version="1.0" encoding="UTF-8" standalone="no"?>
<!-- Generator: Adobe Illustrator 13.0.0, SVG Export Plug-In . SVG Version: 6.00 Build 14948)  -->

<svg
   xmlns:dc="http://purl.org/dc/elements/1.1/"
   xmlns:cc="http://creativecommons.org/ns#"
   xmlns:rdf="http://www.w3.org/1999/02/22-rdf-syntax-ns#"
   xmlns:svg="http://www.w3.org/2000/svg"
   xmlns="http://www.w3.org/2000/svg"
   xmlns:sodipodi="http://sodipodi.sourceforge.net/DTD/sodipodi-0.dtd"
   xmlns:inkscape="http://www.inkscape.org/namespaces/inkscape"
   version="1.1"
   id="Layer_2"
   x="0px"
   y="0px"
   width="500px"
   height="500px"
   viewBox="0 0 483.356 297.5"
   xml:space="preserve"
   inkscape:version="0.48.4 r9939"
   sodipodi:docname="helipad.svg"><metadata
     id="metadata3087"><rdf:RDF><cc:Work
         rdf:about=""><dc:format>image/svg+xml</dc:format><dc:type
           rdf:resource="http://purl.org/dc/dcmitype/StillImage" /></cc:Work></rdf:RDF></metadata><defs
     id="defs3085" /><sodipodi:namedview
     pagecolor="#ffffff"
     bordercolor="#666666"
     borderopacity="1"
     objecttolerance="10"
     gridtolerance="10"
     guidetolerance="10"
     inkscape:pageopacity="0"
     inkscape:pageshadow="2"
     inkscape:window-width="1680"
     inkscape:window-height="1001"
     id="namedview3083"
     showgrid="false"
     inkscape:zoom="1.576"
     inkscape:cx="117.06853"
     inkscape:cy="250"
     inkscape:window-x="0"
     inkscape:window-y="25"
     inkscape:window-maximized="1"
     inkscape:current-layer="Layer_2" /><rect
     style="fill:#ffff00;stroke:#000000;stroke-width:4.83356;stroke-miterlimit:4;stroke-opacity:1;stroke-dasharray:none"
     id="rect3089"
     width="481.49411"
     height="481.49414"
     x="1.8976444"
     y="-92.493843"
     rx="24.074709"
     ry="24.074707" /><!-- Created by Alison Wheeler [[user:AlisonW]] --><circle
     cx="55.5"
     cy="78"
     r="55.5"
     id="circle3057"
     sodipodi:cx="55.5"
     sodipodi:cy="78"
     sodipodi:rx="55.5"
     sodipodi:ry="55.5"
     transform="matrix(0.89940058,0,0,0.89940058,27.067936,29.928327)"
     style="fill:#000000;fill-opacity:1" /><circle
     cx="57"
     cy="77.5"
     r="34"
     id="circle3059"
     sodipodi:cx="57"
     sodipodi:cy="77.5"
     sodipodi:rx="34"
     sodipodi:ry="34"
     transform="matrix(0.89940058,0,0,0.89940058,27.067936,29.928327)"
     style="fill:none" /><circle
     cx="56"
     cy="78.5"
     r="18"
     id="circle3061"
     sodipodi:cx="56"
     sodipodi:cy="78.5"
     sodipodi:rx="18"
     sodipodi:ry="18"
     transform="matrix(0.89940058,0,0,0.89940058,27.067936,29.928327)"
     style="fill:#ffffff" /><path
     d="M 408.33828,96.034258 C 405.66701,90.073936 398.63987,85.24145 392.64187,85.24145 H 179.9551 c -5.99703,0 -8.69436,4.832486 -6.02415,10.792808 l 51.98089,116.022712 c 2.67049,5.96021 9.69744,10.7928 15.69628,10.7928 H 454.2939 c 5.99727,0 8.69544,-4.83259 6.02513,-10.7928 L 408.33828,96.034258 z"
     id="path3063"
     inkscape:connector-curvature="0"
     style="stroke:#ffffff;stroke-width:0.89940095" /><path
     d="m 394.48378,109.04859 c -1.09274,-2.21966 -4.97727,-4.02032 -8.67455,-4.02032 H 254.69359 c -3.69649,0 -5.80928,1.80066 -4.71651,4.02032 l 21.2681,43.22512 c 1.09298,2.21963 4.97652,4.02043 8.67469,4.02043 h 131.11471 c 3.69753,0 5.80836,-1.8008 4.71735,-4.02043 l -21.26815,-43.22512 z"
     id="path3065"
     inkscape:connector-curvature="0"
     style="fill:#ffff00;stroke:#000000;stroke-width:0.89940094999999998" /><path
     d="m 243.37368,40.271436 c 0,5.712081 -4.63091,10.343103 -10.34311,10.343103 H 114.30976 c -5.71206,0 -10.34307,-4.631022 -10.34307,-10.343103 l 0,0 c 0,-5.712104 4.63101,-10.343109 10.34307,-10.343109 h 118.72081 c 5.7122,0 10.34311,4.631005 10.34311,10.343109 l 0,0 z"
     id="path3067"
     inkscape:connector-curvature="0" /><path
     d="m 313.9766,40.721138 c 0,5.71208 4.63001,10.3431 10.34311,10.3431 h 118.72088 c 5.71314,0 10.3431,-4.63102 10.3431,-10.3431 l 0,0 c 0,-5.712105 -4.62996,-10.34311 -10.3431,-10.34311 H 324.31971 c -5.7131,0 -10.34311,4.631005 -10.34311,10.34311 l 0,0 z"
     id="path3069"
     inkscape:connector-curvature="0" /><rect
     x="234.82938"
     y="35.774422"
     width="85.443108"
     height="8.094614"
     id="rect3071" /><rect
     x="269.00616"
     y="41.170834"
     width="17.088625"
     height="115.12335"
     id="rect3073" /><rect
     x="321.17209"
     y="99.631821"
     width="16.189228"
     height="61.159176"
     id="rect3075" /><rect
     x="372.43735"
     y="97.833069"
     width="16.189228"
     height="65.656143"
     id="rect3077" /><path
     d="m 265.94512,179.93573 c -1.41203,7.27514 -6.6421,11.47899 -11.67962,9.39509 -57.64894,-23.76383 -115.66996,-46.58253 -173.844227,-69.02901 -5.064526,-1.95065 -8.825815,-5.30467 -8.400394,-7.4937 1.897733,-9.77831 2.848397,-14.666546 4.746132,-24.444832 0.425416,-2.18914 5.167055,-3.890815 10.593142,-3.805372 62.346477,0.947075 124.691157,1.488507 187.043837,1.015431 5.45304,-0.04791 8.73051,5.803835 7.31742,13.083585 -5.25971,27.093528 -10.51847,54.186258 -15.77629,81.278808 z"
     id="path3079"
     inkscape:connector-curvature="0"
     style="stroke:#000000;stroke-width:0.89940095" /><path
     d="m 456.0819,278.61259 c 0,10.43105 -8.45613,18.88741 -18.88741,18.88741 H 218.64017 c -10.43104,0 -18.88741,-8.45636 -18.88741,-18.88741 l 0,0 c 0,-10.43104 8.45637,-18.8874 18.88741,-18.8874 h 218.55432 c 10.43128,0 18.88741,8.45636 18.88741,18.8874 l 0,0 z"
     id="path3081"
     inkscape:connector-curvature="0" /></svg>