<?xml version="1.0" encoding="UTF-8" standalone="no"?>
<svg
   xmlns:dc="http://purl.org/dc/elements/1.1/"
   xmlns:cc="http://creativecommons.org/ns#"
   xmlns:rdf="http://www.w3.org/1999/02/22-rdf-syntax-ns#"
   xmlns:svg="http://www.w3.org/2000/svg"
   xmlns="http://www.w3.org/2000/svg"
   version="1.1"
   id="svg2"
   viewBox="0 0 49.999995 50"
   height="50"
   width="50">
  <defs
     id="defs4" />
  <metadata
     id="metadata7">
    <rdf:RDF>
      <cc:Work
         rdf:about="">
        <dc:format>image/svg+xml</dc:format>
        <dc:type
           rdf:resource="http://purl.org/dc/dcmitype/StillImage" />
        <dc:title></dc:title>
      </cc:Work>
    </rdf:RDF>
  </metadata>
  <g
     transform="translate(0,-1002.3621)"
     id="layer1">
    <path
       id="path4136"
       d="m 7.1284512,1015.4619 c 14.0472458,0 14.0472458,0.07 14.0472458,0.07"
       style="fill:#0000ff;fill-rule:evenodd;stroke:#0000ff;stroke-width:1px;stroke-linecap:butt;stroke-linejoin:miter;stroke-opacity:1" />
    <path
       style="fill:#0000ff;fill-rule:evenodd;stroke:#0000ff;stroke-width:1px;stroke-linecap:butt;stroke-linejoin:miter;stroke-opacity:1"
       d="m 5.6608285,1017.6983 c 14.0472455,0 14.0472455,0.07 14.0472455,0.07"
       id="path4138" />
    <path
       id="path4140"
       d="m 3.3545643,1019.8648 c 14.0472457,0 14.0472457,0.07 14.0472457,0.07"
       style="fill:#0000ff;fill-rule:evenodd;stroke:#0000ff;stroke-width:1px;stroke-linecap:butt;stroke-linejoin:miter;stroke-opacity:1" />
    <path
       style="fill:#0000ff;fill-rule:evenodd;stroke:#0000ff;stroke-width:1px;stroke-linecap:butt;stroke-linejoin:miter;stroke-opacity:1"
       d="m 12.020527,1026.0148 c 14.047246,0 14.047246,0.07 14.047246,0.07"
       id="path4142" />
    <path
       id="path4144"
       d="m 10.552904,1028.2512 c 14.047246,0 14.047246,0.07 14.047246,0.07"
       style="fill:#0000ff;fill-rule:evenodd;stroke:#0000ff;stroke-width:1px;stroke-linecap:butt;stroke-linejoin:miter;stroke-opacity:1" />
    <path
       style="fill:#0000ff;fill-rule:evenodd;stroke:#0000ff;stroke-width:1px;stroke-linecap:butt;stroke-linejoin:miter;stroke-opacity:1"
       d="m 8.2466399,1030.4177 c 14.0472461,0 14.0472461,0.07 14.0472461,0.07"
       id="path4146" />
    <path
       id="path4148"
       d="m 32.846792,1011.5482 c 14.047246,0 14.047246,0.07 14.047246,0.07"
       style="fill:#0000ff;fill-rule:evenodd;stroke:#0000ff;stroke-width:1px;stroke-linecap:butt;stroke-linejoin:miter;stroke-opacity:1" />
    <path
       style="fill:#0000ff;fill-rule:evenodd;stroke:#0000ff;stroke-width:1px;stroke-linecap:butt;stroke-linejoin:miter;stroke-opacity:1"
       d="m 31.379169,1013.7846 c 14.047246,0 14.047246,0.07 14.047246,0.07"
       id="path4150" />
    <path
       id="path4152"
       d="m 29.072905,1015.9511 c 14.047246,0 14.047246,0.07 14.047246,0.07"
       style="fill:#0000ff;fill-rule:evenodd;stroke:#0000ff;stroke-width:1px;stroke-linecap:butt;stroke-linejoin:miter;stroke-opacity:1" />
    <path
       style="fill:#0000ff;fill-rule:evenodd;stroke:#0000ff;stroke-width:1px;stroke-linecap:butt;stroke-linejoin:miter;stroke-opacity:1"
       d="m 28.933131,1035.3097 c 14.047246,0 14.047246,0.07 14.047246,0.07"
       id="path4154" />
    <path
       id="path4156"
       d="m 27.465508,1037.5461 c 14.047246,0 14.047246,0.07 14.047246,0.07"
       style="fill:#0000ff;fill-rule:evenodd;stroke:#0000ff;stroke-width:1px;stroke-linecap:butt;stroke-linejoin:miter;stroke-opacity:1" />
    <path
       style="fill:#0000ff;fill-rule:evenodd;stroke:#0000ff;stroke-width:1px;stroke-linecap:butt;stroke-linejoin:miter;stroke-opacity:1"
       d="m 25.159244,1039.7126 c 14.047246,0 14.047246,0.07 14.047246,0.07"
       id="path4158" />
    <path
       id="path4160"
       d="m 5.5909415,1046.4916 c 14.0472455,0 14.0472455,0.07 14.0472455,0.07"
       style="fill:#0000ff;fill-rule:evenodd;stroke:#0000ff;stroke-width:1px;stroke-linecap:butt;stroke-linejoin:miter;stroke-opacity:1" />
    <path
       style="fill:#0000ff;fill-rule:evenodd;stroke:#0000ff;stroke-width:1px;stroke-linecap:butt;stroke-linejoin:miter;stroke-opacity:1"
       d="m 4.1233185,1048.728 c 14.0472455,0 14.0472455,0.07 14.0472455,0.07"
       id="path4162" />
    <path
       id="path4164"
       d="m 1.8170545,1050.8945 c 14.0472455,0 14.0472455,0.07 14.0472455,0.07"
       style="fill:#0000ff;fill-rule:evenodd;stroke:#0000ff;stroke-width:1px;stroke-linecap:butt;stroke-linejoin:miter;stroke-opacity:1" />
  </g>
</svg>
