<?xml version="1.0" encoding="UTF-8" standalone="no"?>
<!-- Created with Inkscape (http://www.inkscape.org/) -->
<svg xmlns:dc="http://purl.org/dc/elements/1.1/" xmlns:cc="http://creativecommons.org/ns#" xmlns:rdf="http://www.w3.org/1999/02/22-rdf-syntax-ns#" xmlns:svg="http://www.w3.org/2000/svg" xmlns="http://www.w3.org/2000/svg" xmlns:sodipodi="http://sodipodi.sourceforge.net/DTD/sodipodi-0.dtd" xmlns:inkscape="http://www.inkscape.org/namespaces/inkscape" width="602.20001" height="601.20001" id="svg2" sodipodi:version="0.32" inkscape:version="0.48.2 r9819" version="1.0" sodipodi:docname="Aa.svg">
  <defs id="defs4"/>
  <sodipodi:namedview id="base" pagecolor="#ffffff" bordercolor="#666666" borderopacity="1.0" inkscape:pageopacity="0.0" inkscape:pageshadow="2" inkscape:zoom="1" inkscape:cx="146.44243" inkscape:cy="245.11656" inkscape:document-units="px" inkscape:current-layer="layer1" showgrid="true" inkscape:window-width="1280" inkscape:window-height="968" inkscape:window-x="-4" inkscape:window-y="-4" showguides="true" inkscape:guide-bbox="true" fit-margin-top="0.1" fit-margin-bottom="0.1" fit-margin-right="0.1" fit-margin-left="0.1" inkscape:window-maximized="0">
    <inkscape:grid id="GridFromPre046Settings" type="xygrid" originx="0px" originy="230px" spacingx="55px" spacingy="55px" color="#0000ff" empcolor="#0000ff" opacity="0.2" empopacity="0.4" empspacing="8" visible="true" enabled="true" snapvisiblegridlinesonly="true"/>
  </sodipodi:namedview>
  <metadata id="metadata7">
    <rdf:RDF>
      <cc:Work rdf:about="">
        <dc:format>image/svg+xml</dc:format>
        <dc:type rdf:resource="http://purl.org/dc/dcmitype/StillImage"/>
        <dc:title>PL - Znak drogowy informacyjny</dc:title>
        <dc:date>7.2.2007</dc:date>
        <dc:creator>
          <cc:Agent>
            <dc:title>Julo</dc:title>
          </cc:Agent>
        </dc:creator>
        <dc:rights>
          <cc:Agent>
            <dc:title>Free</dc:title>
          </cc:Agent>
        </dc:rights>
        <dc:publisher>
          <cc:Agent>
            <dc:title>Wikipedia</dc:title>
          </cc:Agent>
        </dc:publisher>
        <dc:subject>
          <rdf:Bag>
            <rdf:li>znak drogowy informacyjny</rdf:li>
          </rdf:Bag>
        </dc:subject>
        <dc:description>Znaki drogowe - Polska. Wykonane na podstawie załącznika do Ustawy</dc:description>
        <dc:contributor>
          <cc:Agent>
            <dc:title>MaciekS</dc:title>
          </cc:Agent>
        </dc:contributor>
        <cc:license rdf:resource="http://web.resource.org/cc/PublicDomain"/>
      </cc:Work>
      <cc:License rdf:about="http://web.resource.org/cc/PublicDomain">
        <cc:permits rdf:resource="http://web.resource.org/cc/Reproduction"/>
        <cc:permits rdf:resource="http://web.resource.org/cc/Distribution"/>
        <cc:permits rdf:resource="http://web.resource.org/cc/DerivativeWorks"/>
      </cc:License>
    </rdf:RDF>
  </metadata>
  <g inkscape:label="L1" inkscape:groupmode="layer" id="layer1" style="display:inline" transform="translate(1.1,1.1)">
    <rect style="fill:#ffffff;fill-opacity:1;fill-rule:nonzero;stroke:#000000;stroke-width:2.00000024;stroke-linecap:butt;stroke-linejoin:round;stroke-miterlimit:4;stroke-opacity:1;stroke-dasharray:none;stroke-dashoffset:0" id="rect2188" width="600" height="599.02313" x="0" y="-0.01151316" ry="21.226418" rx="21.226416"/>
    <path style="fill:#003399;fill-opacity:1;fill-rule:nonzero;stroke:none" d="M 25.415094,5.4853702 C 209.20645,5.7095668 393.05424,5.0369276 576.81032,5.8217786 600.11786,10.53047 592.07866,32.0966 593.5,46.124788 c 0,176.609792 0,353.219562 0,529.829362 -0.19314,18.00227 -25.38778,17.31558 -41.70529,16.61561 -176.8613,-0.2242 -353.77902,0.44842 -530.605037,-0.33641 C -2.117861,587.52465 5.921336,565.95853 4.5,551.93033 4.5,375.32054 4.5,198.71077 4.5,22.10097 4.2285173,13.169658 14.168878,5.2704277 25.415094,5.4853702 z" id="rect1307" inkscape:connector-curvature="0"/>
    <path style="fill:none;stroke:#000000;stroke-width:1px;stroke-linecap:butt;stroke-linejoin:miter;stroke-opacity:1" d="m 355,135 c 0,0 0,-1e-5 0,0 z" id="path3690" inkscape:connector-curvature="0"/>
    <path style="fill:none;stroke:#000000;stroke-width:1px;stroke-linecap:butt;stroke-linejoin:miter;stroke-opacity:1" d="m 355,135 0,0 z" id="path3692" inkscape:connector-curvature="0"/>
    <path style="fill:none;stroke:#000000;stroke-width:1px;stroke-linecap:butt;stroke-linejoin:miter;stroke-opacity:1" d="m 355,135 c 0,0 0,0 0,0 l 0,0 z" id="path3694" inkscape:connector-curvature="0"/>
    <path sodipodi:nodetypes="ccccscsscccccccccc" d="m 235.58869,537.16211 -97.59225,0 0,-455.32421 249.38498,0 c 0,0 35.90483,4.23616 51.60694,20.55008 17.90557,18.60319 20.0152,53.86271 20.0152,53.86271 0,0 0,135.79065 0,192.58854 0,7.32107 -7.33902,22.55823 -28.47905,35.23896 -21.14004,12.68075 -56.081,10.90821 -56.081,10.90821 l -138.85482,0 0,142.17571 z m 0,-362.88801 0,131.69644 118.97064,0 c 8.59875,0 15.5177,-7.18849 15.5177,-16.12232 l 0,-99.44543 c 0,-8.93386 -6.91895,-16.12869 -15.5177,-16.12869 l -118.97064,0 z" style="fill:#ffffff;fill-rule:evenodd;stroke:none" id="path3878" inkscape:connector-curvature="0"/>
  </g>
</svg>